# Blender 5.0.0
# www.blender.org
mtllib pistol.mtl
o Cube
v -0.020000 -0.100000 0.400000
v -0.040000 0.100000 0.500000
v -0.100000 -0.100000 -0.100000
v -0.100000 0.100000 -0.100000
v 0.020000 -0.100000 0.400000
v 0.040000 0.100000 0.500000
v 0.100000 -0.100000 -0.100000
v 0.100000 0.100000 -0.100000
v -0.020000 -0.100000 0.200000
v -0.040000 0.100000 0.200000
v 0.020000 -0.100000 0.200000
v 0.040000 0.100000 0.200000
v -0.030000 -0.100000 -0.300000
v -0.020000 0.200000 -0.300000
v 0.030000 -0.100000 -0.300000
v 0.020000 0.200000 -0.300000
v -0.100000 -0.300000 -0.300000
v 0.100000 -0.300000 -0.300000
v -0.030000 -0.300000 -0.500000
v -0.030000 -0.100000 -0.500000
v 0.030000 -0.300000 -0.500000
v 0.030000 -0.100000 -0.500000
v -0.040000 0.000000 0.500000
v -0.100000 0.000000 -0.100000
v 0.100000 0.000000 -0.100000
v 0.040000 0.000000 0.500000
v 0.100000 0.000000 0.200000
v -0.100000 0.000000 0.200000
v -0.100000 0.000000 -0.300000
v 0.100000 0.000000 -0.300000
v -0.100000 -0.200000 -0.500000
v 0.100000 -0.200000 -0.500000
v -0.100000 0.100000 -0.010000
v 0.010000 -0.180000 -0.010000
v -0.010000 -0.180000 -0.010000
v 0.100000 0.100000 -0.010000
v 0.100000 0.000000 -0.010000
v -0.100000 0.000000 -0.010000
vn -1.0000 -0.0000 -0.0000
vn 0.9312 -0.3259 -0.1630
vn 0.9535 0.2860 0.0953
vn -0.0000 -0.0000 1.0000
vn -0.0000 -1.0000 -0.0000
vn -0.0000 1.0000 -0.0000
vn -0.0000 -0.9345 0.3560
vn 0.9490 0.2847 0.1356
vn -0.9535 0.2860 0.0953
vn -0.0000 0.5547 -0.8321
vn -0.0000 -0.7071 0.7071
vn -0.0000 0.8944 0.4472
vn -0.9583 0.2556 -0.1278
vn -0.8962 0.3137 -0.3137
vn 0.8962 0.3137 -0.3137
vn -0.0000 0.7071 -0.7071
vn -0.7881 0.3941 -0.4729
vn -0.0000 -0.0000 -1.0000
vn 0.7881 0.3941 -0.4729
vn -0.9312 -0.3259 -0.1630
vn -0.8678 -0.4859 0.1041
vn 0.8522 -0.5174 0.0783
vn 0.8678 -0.4859 0.1041
vn 0.9583 0.2556 -0.1278
vn -0.9014 -0.2897 0.3219
vn -0.8522 -0.5174 0.0783
vn 0.9014 -0.2897 0.3219
vn 1.0000 -0.0000 -0.0000
vn -0.0000 -0.7474 -0.6644
vn -0.9490 0.2847 0.1356
vt 0.500000 0.212500
vt 0.625000 0.212500
vt 0.625000 0.250000
vt 0.500000 0.250000
vt 0.500000 0.500000
vt 0.375000 0.500000
vt 0.500000 0.625000
vt 0.625000 0.625000
vt 0.625000 0.750000
vt 0.500000 0.750000
vt 0.625000 1.000000
vt 0.500000 1.000000
vt 0.125000 0.625000
vt 0.375000 0.625000
vt 0.375000 0.750000
vt 0.125000 0.750000
vt 0.875000 0.625000
vt 0.875000 0.750000
vt 0.625000 0.537500
vt 0.875000 0.537500
vt 0.125000 0.537500
vt 0.375000 0.537500
vt 0.500000 0.537500
vt 0.500000 0.000000
vt 0.625000 0.000000
vt 0.625000 0.125000
vt 0.500000 0.125000
vt 0.875000 0.500000
vt 0.625000 0.500000
vt 0.125000 0.500000
vt 0.375000 0.250000
vt 0.000000 0.000000
vt 0.375000 0.000000
vt 0.375000 0.125000
vt 0.375000 1.000000
vt 0.375000 0.212500
s 0
f 38/1/1 33/2/1 4/3/1 24/4/1
f 25/5/2 7/6/2 15/6/2 30/5/2
f 27/7/3 12/8/3 6/9/3 26/10/3
f 26/10/4 6/9/4 2/11/4 23/12/4
f 9/13/5 11/14/5 5/15/5 1/16/5
f 12/8/6 10/17/6 2/18/6 6/9/6
f 36/19/6 33/20/6 10/17/6 12/8/6
f 35/21/7 34/22/7 11/14/7 9/13/7
f 37/23/8 36/19/8 12/8/8 27/7/8
f 23/24/9 2/25/9 10/26/9 28/27/9
f 14/28/10 16/29/10 22/29/10 20/28/10
f 7/6/11 3/30/11 17/30/11 18/6/11
f 4/28/12 8/29/12 16/29/12 14/28/12
f 24/4/13 4/3/13 14/3/13 29/4/13
f 18/6/5 17/30/5 19/30/5 21/6/5
f 3/31/14 13/31/14 19/31/14 17/31/14
f 15/6/15 7/6/15 18/6/15 21/6/15
f 13/31/16 15/6/16 21/6/16 19/31/16
f 29/4/17 14/3/17 20/3/17 31/4/17
f 22/29/18 32/5/18 31/4/18 20/3/18
f 30/5/11 29/4/11 31/4/11 32/5/11
f 16/29/19 30/5/19 32/5/19 22/29/19
f 29/32/18 30/32/18 15/32/18 13/32/18
f 3/31/20 24/4/20 29/4/20 13/31/20
f 1/33/21 23/24/21 28/27/21 9/34/21
f 34/22/22 37/23/22 27/7/22 11/14/22
f 5/15/11 26/10/11 23/12/11 1/35/11
f 11/14/23 27/7/23 26/10/23 5/15/23
f 8/29/24 25/5/24 30/5/24 16/29/24
f 35/36/25 38/1/25 24/4/25 3/31/25
f 9/34/26 28/27/26 38/1/26 35/36/26
f 7/6/27 25/5/27 37/23/27 34/22/27
f 25/5/28 8/29/28 36/19/28 37/23/28
f 3/30/29 7/6/29 34/22/29 35/21/29
f 8/29/6 4/28/6 33/20/6 36/19/6
f 28/27/30 10/26/30 33/2/30 38/1/30
